<?xml version="1.0" encoding="UTF-8"?>
<svg width="170px" height="26px" viewBox="0 0 170 26" version="1.1" xmlns="http://www.w3.org/2000/svg" xmlns:xlink="http://www.w3.org/1999/xlink">
    <!-- Generator: Sketch 53.2 (72643) - https://sketchapp.com -->
    <title>logo-footer</title>
    <desc>Created with Sketch.</desc>
    <g id="Page-1" stroke="none" stroke-width="1" fill="none" fill-rule="evenodd">
        <g id="logo-footer" fill-rule="nonzero">
            <polygon id="Path" fill="#F7BC00" points="0.408 6.344 4.37466667 6.336 4.39733333 19.3 0.430666667 19.308"/>
            <path d="M2.36866667,0.4 C1.83702494,0.380456578 1.32332401,0.605023521 0.959555556,1.016 C0.567595179,1.40672992 0.355292576,1.95848963 0.377777778,2.528 C0.365130318,3.08978805 0.576279691,3.63129182 0.959555556,4.02 C1.33996912,4.41707748 1.85337683,4.63854747 2.38755556,4.636 C2.92022963,4.6551317 3.43493735,4.43072626 3.80044444,4.02 C4.1855458,3.6329175 4.3959025,3.08992063 4.37844444,2.528 C4.39182659,1.96099927 4.18253584,1.41351207 3.80044444,1.016 C3.424499,0.609343394 2.90594854,0.386245166 2.36866667,0.4 Z" id="Path" fill="#F7BC00"/>
            <path d="M71.6682222,0.4 C71.1392738,0.383303774 70.6289602,0.607592549 70.2666667,1.016 C69.8747063,1.40672992 69.6624037,1.95848963 69.6848889,2.528 C69.6722414,3.08978805 69.8833908,3.63129182 70.2666667,4.02 C70.6470802,4.41707748 71.1604879,4.63854747 71.6946667,4.636 C72.2273407,4.6551317 72.7420485,4.43072626 73.1075556,4.02 C73.4857132,3.62939926 73.689022,3.08686547 73.6666667,2.528 C73.6800488,1.96099927 73.4707581,1.41351207 73.0886667,1.016 C72.7162099,0.611204405 72.2018487,0.388142867 71.6682222,0.4 Z" id="Path" fill="#FFFFFF"/>
            <path d="M14.8655556,9.76 L14.8655556,12.764 C14.8655556,12.764 19.6708889,12.824 20.196,12.824 C19.8307736,13.6330757 19.2958362,14.3431333 18.632,14.9 C18.0351111,15.384 16.8866667,15.636 15.9497778,15.636 C14.7683268,15.6966844 13.619714,15.2140046 12.7991111,14.312 C12.0057778,13.424 11.6242222,12.228 11.6242222,10.752 C11.565664,9.45562612 11.9779409,8.18468411 12.7764444,7.2 C13.5760169,6.25251929 14.7233889,5.71727888 15.9233333,5.732 C16.6796025,5.75254887 17.4234228,5.94058567 18.1068889,6.284 C18.6470693,6.61120167 19.0755426,7.11108718 19.3308889,7.712 L23.6904444,7.712 C23.1351111,5.928 22.3531111,4.552 20.9364444,3.532 C19.4296037,2.52691969 17.6814931,2.0020468 15.9006667,2.02 C14.4367733,2.00875119 12.9945109,2.39431333 11.7111111,3.14 C10.4551758,3.86523425 9.41016799,4.9399018 8.68888889,6.248 C7.93021957,7.60301887 7.53814314,9.15287392 7.55555556,10.728 C7.54011184,12.3003392 7.93209758,13.8470688 8.68888889,15.2 C9.41131601,16.5061222 10.4561255,17.579203 11.7111111,18.304 C13.0000367,19.0495082 14.4471165,19.4349679 15.9157778,19.424 C17.2189105,19.4458574 18.504637,19.1051732 19.6444444,18.436 C20.70307,17.8150721 21.6270712,16.9661659 22.3568889,15.944 C23.0053341,15.0511703 23.4582549,14.0168986 23.6828889,12.916 C23.8831935,11.8781944 23.9618613,10.8181948 23.9171111,9.76 L14.8655556,9.76 Z" id="Path" fill="#FFFFFF"/>
            <path d="M35.6773333,14.312 C35.4419153,14.7916321 35.0725414,15.1827339 34.6195556,15.432 C33.778738,15.9441035 32.7441509,15.9441035 31.9033333,15.432 C31.4552332,15.1757323 31.0875861,14.786459 30.8455556,14.312 C30.5585209,13.7504505 30.4177077,13.1181717 30.4375556,12.48 C30.4177077,11.8418283 30.5585209,11.2095495 30.8455556,10.648 C31.0831369,10.1700509 31.4519369,9.77955675 31.9033333,9.528 C32.3115761,9.2741613 32.7748584,9.13637078 33.2482222,9.128 C33.7303566,9.13318171 34.2029319,9.27102574 34.6195556,9.528 C35.0666061,9.78575672 35.4338964,10.1746524 35.6773333,10.648 C35.964368,11.2095495 36.1051812,11.8418283 36.0853333,12.48 C36.1130336,13.118973 35.9717313,13.7534481 35.6773333,14.312 L35.6773333,14.312 Z M36.0853333,5.712 L36.0853333,7.896 C35.1975556,6.62 33.9244444,5.6 32.2848889,5.6 C31.2408333,5.59965302 30.2175147,5.90863459 29.3306667,6.492 C28.4235502,7.08958676 27.6870364,7.93717683 27.2,8.944 C26.6562609,10.0550636 26.3847712,11.2929279 26.4104444,12.544 C26.3854173,13.7950011 26.6568703,15.0326986 27.2,16.144 C27.6980616,17.143277 28.4370977,17.9851295 29.342,18.584 C30.2310275,19.1589186 31.25454,19.4582579 32.2962222,19.448 C33.8828889,19.448 35.1333333,18.34 36.0966667,16.912 L36.0966667,19.272 L40.0444444,19.272 L40.0444444,5.712 L36.0853333,5.712 Z" id="Shape" fill="#FFFFFF"/>
            <path d="M64.6188889,7.036 C63.6249697,5.99412055 62.2646983,5.44005227 60.8675556,5.508 C59.9672617,5.5040016 59.0816445,5.74946161 58.2986667,6.22 C57.5301638,6.68147355 56.8812944,7.33690802 56.4097778,8.128 C56.0159539,7.31676175 55.4066453,6.64519367 54.6568889,6.196 C53.8714585,5.72730385 52.9818597,5.48975012 52.0804444,5.508 C51.2696952,5.49431547 50.468534,5.69504497 49.7495556,6.092 C49.0986165,6.45992286 48.5512042,7.00365502 48.1628889,7.668 L48.1628889,5.668 L44.2,5.668 L44.2226667,19.208 L48.1855556,19.208 L48.1855556,11.872 C48.1437598,11.1289806 48.3783523,10.3981624 48.8391111,9.836 C49.324494,9.33512018 49.9873377,9.07502005 50.6637778,9.12 C51.3472249,9.0731733 52.0177305,9.33305172 52.5111111,9.836 C52.9801245,10.3941812 53.2218226,11.1259849 53.1835556,11.872 L53.1835556,19.224 L57.12,19.224 L57.12,11.872 C57.0767594,11.1294704 57.3100249,10.398561 57.7697778,9.836 C58.2549015,9.33468613 58.9179338,9.07451195 59.5944444,9.12 C60.2703237,9.07901761 60.9316931,9.33853926 61.4191111,9.836 C61.8924129,10.391723 62.1359325,11.1249227 62.0953333,11.872 L62.0953333,19.224 L66.0355556,19.224 L66.0128889,11.312 C66.0128889,9.476 65.5293333,8.056 64.6188889,7.036 Z" id="Path" fill="#FFFFFF"/>
            <polygon id="Path" fill="#FFFFFF" points="69.6848889 6.34 73.6515556 6.336 73.6704444 19.172 69.7075556 19.18"/>
            <path d="M89.6768889,8.156 C89.2783538,7.33064293 88.6716081,6.63836206 87.924,6.156 C87.1324443,5.68577227 86.2360466,5.4495267 85.3286667,5.472 C84.5176207,5.45540085 83.7157877,5.65629866 82.9977778,6.056 C82.3452349,6.42154905 81.7972914,6.96580881 81.4111111,7.632 L81.4111111,5.632 L77.4444444,5.632 L77.4708889,19.172 L81.4375556,19.172 L81.4375556,11.82 C81.394491,11.0781868 81.6262292,10.3478167 82.0835556,9.784 C82.5726737,9.28460796 83.2376802,9.02618701 83.9157778,9.072 C84.5958972,9.02787963 85.2626094,9.28589941 85.7555556,9.784 C86.2274899,10.340357 86.4696251,11.0734842 86.428,11.82 L86.428,19.176 L90.372,19.176 L90.3455556,11.26 C90.3672386,10.1828431 90.1375611,9.11666331 89.6768889,8.156 Z" id="Path" fill="#FFFFFF"/>
            <path d="M102.729111,14.184 C102.495733,14.6652106 102.12581,15.0568938 101.671333,15.304 C101.265166,15.5595658 100.802655,15.6975143 100.330222,15.704 C99.847694,15.7018207 99.3743987,15.5637666 98.9588889,15.304 C98.509169,15.0500405 98.1409617,14.660174 97.9011111,14.184 C97.6126566,13.6244704 97.4717288,12.9930586 97.4931111,12.356 C97.4712327,11.7176159 97.6121702,11.0847791 97.9011111,10.524 C98.1344892,10.0427894 98.5044122,9.65110622 98.9588889,9.404 C99.7983304,8.89179026 100.831892,8.89179026 101.671333,9.404 C102.121053,9.65795945 102.489261,10.047826 102.729111,10.524 C103.01674,11.0851689 103.156367,11.7179834 103.133333,12.356 C103.155871,12.9926914 103.016253,13.6240809 102.729111,14.184 L102.729111,14.184 Z M103.133333,5.6 L103.133333,7.78 C102.241778,6.508 100.968667,5.476 99.3366667,5.476 C98.2917497,5.47413158 97.2671629,5.78171546 96.3786667,6.364 C95.4671902,6.96718183 94.7280148,7.82174297 94.2404444,8.836 C93.6946302,9.94640128 93.421791,11.1844949 93.4471111,12.436 C93.422441,13.6874332 93.6952431,14.9253586 94.2404444,16.036 C94.7345245,17.0380365 95.4727865,17.8818741 96.3786667,18.48 C97.2694435,19.0544803 98.2936826,19.3550346 99.3366667,19.348 C100.923333,19.348 102.173778,18.236 103.133333,16.808 L103.133333,19.092 C103.133333,20.188 102.895333,21 102.411778,21.492 C101.937746,22.0011683 101.2847,22.2780425 100.609778,22.256 C99.1213333,22.256 98.2071111,21.752 97.8217778,20.728 L93.908,20.728 C94.0742222,22.46 94.7277778,23.732 95.8762222,24.576 C97.0246667,25.42 98.6226667,25.82 100.590889,25.82 C102.804667,25.82 104.441704,25.184 105.502,23.912 C106.559778,22.636 107.088667,21.012 107.088667,19.024 L107.066,5.56 L103.133333,5.6 Z" id="Shape" fill="#FFFFFF"/>
            <path d="M112.139556,14.86 C111.636719,14.8547969 111.152679,15.0621055 110.794667,15.436 C110.07473,16.213687 110.07473,17.458313 110.794667,18.236 C111.15038,18.6140433 111.635608,18.823304 112.139556,18.816 C112.648153,18.824442 113.13847,18.6153361 113.499556,18.236 C113.864242,17.876454 114.064023,17.367318 114.047333,16.84 C114.056873,16.3058848 113.858832,15.7910586 113.499556,15.416 C113.134756,15.0454373 112.644893,14.8451696 112.139556,14.86 Z" id="Path" fill="#FFFFFF"/>
            <path d="M125.977556,16.644 C125.272271,17.1067928 124.453259,17.3378577 123.624,17.308 C122.455723,17.3530401 121.328978,16.845932 120.548889,15.924 C119.768148,15.0013333 119.377778,13.6933333 119.377778,12 C119.377778,10.308 119.755556,8.976 120.537556,8.052 C121.318082,7.12803441 122.442251,6.61331137 123.612667,6.644 C124.445664,6.61347411 125.26736,6.85507165 125.966222,7.336 C126.6039,7.80317122 127.079053,8.47912873 127.318667,9.26 L129.721333,9.26 C129.383717,7.92582491 128.631887,6.75076399 127.586889,5.924 C125.370355,4.45707779 122.583912,4.35040186 120.273111,5.644 C119.293133,6.2392224 118.49474,7.11928193 117.972444,8.18 C117.407035,9.36243717 117.127934,10.6750873 117.160222,12 C117.138547,13.3202956 117.42947,14.6253204 118.006444,15.796 C118.53191,16.8646102 119.340736,17.7474292 120.333556,18.336 C121.362403,18.9412122 122.522683,19.2514476 123.699556,19.236 C125.100252,19.2885371 126.478727,18.8544615 127.624667,18 C128.662489,17.1757149 129.418414,16.0158486 129.778,14.696 L127.379111,14.696 C127.106071,15.4789229 126.617933,16.1573781 125.977556,16.644 L125.977556,16.644 Z" id="Path" fill="#FFFFFF"/>
            <path d="M142.225778,5.6 C140.071533,4.40501073 137.50069,4.40501073 135.346444,5.6 C134.327235,6.18377484 133.487986,7.06544836 132.928667,8.14 C132.32288,9.30977325 132.014367,10.6260633 132.033333,11.96 C132.010805,13.2786412 132.300424,14.5822728 132.875778,15.752 C133.413376,16.8310989 134.236541,17.7207566 135.244444,18.312 C136.285367,18.9173978 137.456951,19.2261446 138.644444,19.208 C139.869939,19.2252599 141.078858,18.9069743 142.154,18.284 C143.198621,17.6880211 144.069841,16.8015114 144.673778,15.72 C145.295867,14.5747953 145.614337,13.2729698 145.595556,11.952 C145.621271,10.6233551 145.308048,9.31196392 144.688889,8.156 C144.108475,7.07791893 143.255447,6.19272153 142.225778,5.6 L142.225778,5.6 Z M142.603556,14.832 C142.209373,15.59697 141.62381,16.2322012 140.911111,16.668 C140.21905,17.0814345 139.439037,17.3016736 138.644444,17.308 C137.8788,17.3177617 137.125148,17.1061645 136.464667,16.696 C135.789755,16.2648544 135.25074,15.6314925 134.915778,14.876 C134.504881,13.9726399 134.304105,12.9782866 134.330222,11.976 C134.298779,10.9640905 134.50792,9.96003026 134.938444,9.056 C135.29017,8.29358982 135.847616,7.65880698 136.540222,7.232 C137.217132,6.82160534 137.985364,6.61030895 138.765333,6.62 C139.558805,6.60730264 140.341161,6.81853871 141.032,7.232 C141.745164,7.65390486 142.325737,8.28810057 142.701778,9.056 C143.139354,9.94955729 143.35638,10.9457813 143.332667,11.952 C143.339173,12.9619751 143.106694,13.9575948 142.656444,14.848 L142.603556,14.832 Z" id="Shape" fill="#FFFFFF"/>
            <path d="M169.958444,10.8 C169.982429,9.6684047 169.736878,8.54863663 169.244444,7.544 C168.817802,6.68530625 168.160535,5.97963285 167.355556,5.516 C166.541326,5.0609296 165.631674,4.83114695 164.711111,4.848 C162.682922,4.82320809 160.812525,6.00342754 159.868,7.904 C159.481498,6.95809465 158.819696,6.16767006 157.979111,5.648 C156.324593,4.66631358 154.318079,4.61687075 152.622222,5.516 C151.86442,5.94829323 151.236217,6.59682046 150.808889,7.388 L150.808889,5.108 L148.576222,5.108 L148.606444,19.132 L150.831556,19.132 L150.801333,11.2 C150.801333,9.792 151.114889,8.716 151.794889,7.972 C153.325971,6.5003041 155.662251,6.5003041 157.193333,7.972 C157.850667,8.716 158.160444,9.768 158.183111,11.172 L158.213333,19.096 L160.415778,19.096 L160.393111,11.2 C160.393111,9.792 160.706667,8.712 161.382889,7.968 C162.086156,7.20778957 163.065532,6.8067049 164.068889,6.868 C165.080477,6.81141957 166.067378,7.21108913 166.785111,7.968 C167.434889,8.712 167.774889,9.764 167.774889,11.168 L167.801333,19.092 L170,19.092 L169.958444,10.8 Z" id="Path" fill="#FFFFFF"/>
        </g>
    </g>
</svg>